<svg width="20" height="20" viewBox="0 0 20 20" fill="none" xmlns="http://www.w3.org/2000/svg">
<path d="M18.5714 0H1.42857C1.04969 0 0.686328 0.210714 0.418419 0.585786C0.15051 0.960859 0 1.46957 0 2V18C0 18.5304 0.15051 19.0391 0.418419 19.4142C0.686328 19.7893 1.04969 20 1.42857 20H18.5714C18.9503 20 19.3137 19.7893 19.5816 19.4142C19.8495 19.0391 20 18.5304 20 18V2C20 1.46957 19.8495 0.960859 19.5816 0.585786C19.3137 0.210714 18.9503 0 18.5714 0V0ZM17 2L10 8.78L3 2H17ZM1.42857 18V2.91L9.59286 10.82C9.71243 10.9361 9.85448 10.9984 10 10.9984C10.1455 10.9984 10.2876 10.9361 10.4071 10.82L18.5714 2.91V18H1.42857Z" fill="#333333"/>
</svg>
